<?xml version="1.0" standalone="no"?>
<!DOCTYPE svg PUBLIC "-//W3C//DTD SVG 20010904//EN"
 "http://www.w3.org/TR/2001/REC-SVG-20010904/DTD/svg10.dtd">
<svg version="1.0" xmlns="http://www.w3.org/2000/svg"
 width="700.000000pt" height="700.000000pt" viewBox="0 0 700.000000 700.000000"
 preserveAspectRatio="xMidYMid meet">
<metadata>
Created by potrace 1.14, written by Peter Selinger 2001-2017
</metadata>
<g transform="translate(0.000000,700.000000) scale(0.100000,-0.100000)"
fill="#000000" stroke="none">
<path d="M2960 4166 c-25 -7 -85 -30 -134 -50 -109 -45 -186 -66 -247 -66
l-47 0 15 -67 c49 -219 184 -430 362 -565 84 -63 242 -141 346 -170 109 -30
375 -32 475 -4 285 79 496 242 635 490 34 62 88 211 99 277 l6 36 -65 6 c-42
4 -98 20 -153 43 -145 60 -194 76 -254 81 -69 7 -118 -5 -265 -63 -156 -62
-203 -70 -281 -50 -34 8 -104 33 -155 54 -150 64 -237 76 -337 48z m573 -193
c4 -2 7 -9 7 -15 0 -19 51 -79 84 -99 38 -23 107 -25 166 -4 61 21 87 19 160
-16 66 -31 115 -35 178 -14 34 11 27 -12 -10 -35 -42 -26 -110 -25 -167 0 -24
11 -46 18 -49 15 -3 -3 2 -19 12 -36 10 -16 20 -55 23 -87 4 -42 12 -64 31
-84 22 -24 23 -28 8 -28 -31 0 -72 52 -80 100 -9 57 -41 108 -72 116 -14 4
-51 1 -82 -5 -46 -9 -71 -8 -140 5 -72 15 -85 15 -93 3 -20 -32 -9 -75 36
-140 39 -54 45 -70 43 -103 -2 -22 -9 -41 -16 -44 -9 -3 -11 3 -7 21 8 29 -5
58 -49 108 -17 19 -36 44 -42 54 -10 18 -11 18 -32 -3 -27 -27 -29 -87 -6
-149 23 -58 12 -104 -32 -142 -57 -51 -73 -40 -24 16 35 40 37 59 9 137 -24
69 -21 90 27 190 34 70 42 106 25 106 -5 0 -28 -7 -51 -15 -23 -8 -60 -15 -81
-15 -55 0 -82 -16 -115 -67 -35 -57 -59 -73 -104 -72 l-35 1 35 12 c23 8 42
25 56 49 11 20 31 48 43 61 l23 24 -26 17 c-31 21 -67 14 -113 -21 -50 -38
-79 -46 -116 -30 -18 7 -38 20 -46 29 -17 21 -7 22 24 1 29 -19 50 -14 128 34
51 31 66 35 110 33 161 -9 182 -7 220 22 21 15 44 42 53 58 14 27 19 30 47 23
18 -3 35 -8 40 -11z"/>
<path d="M1823 2990 c-12 -5 -30 -21 -40 -37 -16 -24 -18 -51 -18 -219 0 -180
1 -194 21 -221 24 -32 84 -44 110 -22 13 10 17 10 23 0 5 -7 17 -11 27 -9 17
3 19 14 19 128 l0 125 -52 3 -53 3 0 -35 c0 -25 4 -36 15 -36 11 0 15 -12 15
-49 0 -59 -7 -81 -26 -81 -21 0 -25 33 -22 210 3 157 4 165 23 165 17 0 20 -8
23 -52 l3 -53 40 0 c37 0 39 1 39 33 -1 51 -17 108 -37 129 -23 22 -79 32
-110 18z"/>
<path d="M1550 2735 l0 -255 35 0 35 0 0 255 0 255 -35 0 -35 0 0 -255z"/>
<path d="M2110 2735 l0 -255 35 0 34 0 3 148 3 147 40 -147 39 -148 33 0 33 0
0 255 0 255 -35 0 -34 0 -3 -137 -3 -138 -24 90 c-51 193 -48 185 -86 185
l-35 0 0 -255z"/>
<path d="M2480 2735 l0 -255 40 0 40 0 0 255 0 255 -40 0 -40 0 0 -255z"/>
<path d="M2680 2956 c0 -32 3 -35 33 -38 l32 -3 3 -217 2 -218 35 0 35 0 2
218 3 217 33 3 c29 3 32 6 32 38 l0 34 -105 0 -105 0 0 -34z"/>
<path d="M3020 2735 l0 -255 85 0 85 0 0 40 0 40 -50 0 -50 0 0 70 0 70 35 0
c34 0 35 1 35 40 0 39 -1 40 -35 40 l-36 0 3 68 3 67 48 3 c46 3 47 4 47 38
l0 34 -85 0 -85 0 0 -255z"/>
<path d="M3520 2735 l0 -255 40 0 40 0 0 109 0 110 33 3 c29 3 32 6 35 41 3
36 3 37 -32 37 l-36 0 0 70 0 70 50 0 50 0 0 35 0 35 -90 0 -90 0 0 -255z"/>
<path d="M3880 2986 c0 -3 -16 -108 -35 -235 -19 -126 -35 -238 -35 -250 0
-17 6 -21 33 -21 32 0 34 2 43 53 8 47 12 52 38 55 33 4 46 -10 46 -50 0 -46
10 -58 46 -58 19 0 34 3 34 8 -1 4 -18 117 -38 252 l-37 245 -48 3 c-26 2 -47
1 -47 -2z m65 -260 c7 -67 7 -68 -17 -64 -12 2 -23 8 -23 13 1 6 5 46 10 90 9
89 17 79 30 -39z"/>
<path d="M4180 2735 l0 -255 35 0 34 0 3 108 c2 65 7 106 13 104 6 -1 18 -48
28 -105 10 -56 20 -103 22 -105 2 -2 19 -2 37 0 l35 3 -23 117 c-22 116 -22
117 -3 154 38 75 16 193 -41 221 -14 7 -51 13 -82 13 l-58 0 0 -255z m114 163
c30 -42 10 -128 -30 -128 -11 0 -14 16 -14 75 0 81 13 97 44 53z"/>
<path d="M4520 2735 l0 -255 35 0 35 0 2 173 3 172 25 -169 c16 -111 29 -170
38 -173 7 -3 15 -4 17 -1 3 2 15 74 29 159 l24 154 1 -157 1 -158 35 0 35 0 0
255 0 255 -44 0 -44 0 -10 -47 c-6 -27 -16 -81 -23 -122 -15 -85 -18 -80 -45
67 l-19 102 -47 0 -48 0 0 -255z"/>
<path d="M4950 2735 l0 -255 85 0 85 0 0 40 0 40 -45 0 -45 0 0 70 0 70 35 0
c34 0 35 1 35 40 0 39 -1 40 -35 40 l-35 0 0 70 0 70 45 0 c45 0 45 0 45 35
l0 35 -85 0 -85 0 0 -255z"/>
<path d="M5260 2735 l0 -255 35 0 34 0 3 108 c2 65 7 106 13 104 6 -1 18 -48
28 -105 10 -56 20 -103 22 -105 2 -2 19 -2 37 0 l35 3 -23 117 c-22 116 -22
117 -3 154 38 75 16 193 -41 221 -14 7 -51 13 -82 13 l-58 0 0 -255z m114 163
c30 -42 10 -128 -30 -128 -11 0 -14 16 -14 75 0 81 13 97 44 53z"/>
</g>
</svg>
