<svg xmlns="http://www.w3.org/2000/svg" xmlns:xlink="http://www.w3.org/1999/xlink" width="500" zoomAndPan="magnify" viewBox="0 0 375 374.999991" height="500" preserveAspectRatio="xMidYMid meet" version="1.0"><defs><g/><clipPath id="e9cb9a3709"><path d="M 135 97.636719 L 239.875 97.636719 L 239.875 157 L 135 157 Z M 135 97.636719 " clip-rule="nonzero"/></clipPath><clipPath id="4a87da7d62"><path d="M 135 151 L 239.875 151 L 239.875 202.636719 L 135 202.636719 Z M 135 151 " clip-rule="nonzero"/></clipPath></defs><rect x="-37.5" width="450" fill="#ffffff" y="-37.499999" height="449.999989" fill-opacity="1"/><rect x="-37.5" width="450" fill="#fdfff9" y="-37.499999" height="449.999989" fill-opacity="1"/><g clip-path="url(#e9cb9a3709)"><path fill="#8fbd4f" d="M 186.132812 130.488281 C 182.660156 127.707031 180.675781 123.539062 180.675781 118.972656 C 180.675781 113.914062 183.257812 109.25 187.425781 106.570312 C 191.59375 109.25 194.171875 114.011719 194.171875 118.972656 C 194.171875 123.441406 192.1875 127.707031 188.714844 130.488281 L 187.425781 114.707031 Z M 169.5625 130.882812 C 176.507812 131.679688 181.964844 137.234375 182.660156 144.183594 C 179.484375 139.417969 173.332031 144.082031 166.484375 138.625 C 163.40625 136.144531 161.421875 132.472656 161.027344 128.5 C 166.285156 124.632812 173.332031 124.53125 178.691406 128.105469 L 178.890625 128.203125 C 183.753906 131.480469 186.828125 137.035156 186.929688 142.992188 C 187.027344 137.035156 190.105469 131.480469 194.96875 128.203125 L 195.164062 128.105469 C 200.523438 124.53125 207.671875 124.730469 212.832031 128.5 C 212.433594 132.472656 210.449219 136.144531 207.371094 138.625 C 200.523438 144.082031 194.371094 139.519531 191.296875 144.183594 C 191.988281 137.234375 197.449219 131.679688 204.394531 130.882812 C 193.179688 131.976562 187.820312 140.410156 188.316406 156.089844 C 187.425781 156.089844 186.433594 155.992188 185.441406 155.792969 C 185.835938 140.3125 180.476562 132.074219 169.363281 130.882812 Z M 187.425781 97.539062 C 201.914062 97.539062 215.015625 103.394531 224.542969 112.921875 C 234.070312 122.449219 239.925781 135.546875 239.925781 150.039062 C 239.925781 151.824219 239.824219 153.511719 239.726562 155.199219 C 238.136719 155.296875 236.847656 155.296875 235.757812 155.296875 C 235.957031 153.609375 236.054688 151.824219 236.054688 150.039062 C 236.054688 136.640625 230.597656 124.53125 221.863281 115.699219 C 213.128906 106.964844 200.921875 101.507812 187.523438 101.507812 C 174.125 101.507812 161.917969 106.964844 153.1875 115.699219 C 144.453125 124.53125 138.992188 136.640625 138.992188 150.039062 C 138.992188 151.824219 139.09375 153.609375 139.292969 155.296875 C 138.199219 155.296875 136.910156 155.296875 135.320312 155.199219 C 135.125 153.511719 135.125 151.726562 135.125 150.039062 C 135.125 135.546875 140.980469 122.449219 150.507812 112.921875 C 160.035156 103.492188 173.132812 97.539062 187.625 97.539062 Z M 187.425781 97.539062 " fill-opacity="1" fill-rule="evenodd"/></g><g clip-path="url(#4a87da7d62)"><path fill="#054d3b" d="M 151.003906 154.601562 C 155.171875 152.816406 159.339844 151.03125 164.5 151.03125 C 168.964844 151.03125 173.132812 152.816406 177.300781 154.601562 C 181.171875 156.289062 184.945312 157.878906 188.617188 157.878906 C 192.289062 157.878906 196.160156 156.191406 200.027344 154.601562 C 204.296875 152.816406 208.464844 151.03125 212.929688 151.03125 C 217.199219 151.03125 221.265625 152.816406 225.335938 154.601562 C 231.886719 157.582031 233.574219 158.078125 239.527344 157.878906 C 237.839844 169.292969 232.480469 179.511719 224.742188 187.253906 C 215.214844 196.78125 202.113281 202.636719 187.625 202.636719 C 173.132812 202.636719 160.035156 196.78125 150.507812 187.253906 C 142.765625 179.511719 137.40625 169.292969 135.71875 157.878906 C 141.773438 158.175781 144.15625 157.679688 151.199219 154.601562 Z M 185.140625 161.449219 C 184.746094 163.039062 183.953125 164.230469 182.957031 165.023438 C 180.28125 167.703125 176.210938 168.597656 172.636719 167.304688 C 170.355469 166.511719 168.371094 166.613281 166.386719 167.503906 C 163.308594 168.796875 159.539062 173.65625 156.164062 169.886719 C 156.0625 169.6875 155.765625 169.6875 155.566406 169.789062 C 155.371094 169.886719 155.269531 170.183594 155.371094 170.382812 C 158.148438 173.261719 160.925781 173.65625 163.804688 171.375 C 166.285156 169.09375 168.46875 168.398438 170.253906 169.09375 C 170.753906 169.292969 171.84375 169.789062 171.84375 170.480469 C 171.84375 170.679688 170.15625 172.367188 169.757812 172.863281 C 168.074219 175.34375 168.371094 177.527344 164.398438 177.824219 C 164.203125 177.824219 164.101562 178.023438 164.101562 178.222656 C 164.101562 178.421875 164.300781 178.519531 164.5 178.519531 C 171.25 179.511719 170.253906 171.671875 175.117188 171.078125 C 177.796875 170.679688 178.691406 171.574219 181.769531 169.984375 C 184.347656 168.992188 185.339844 169.09375 184.945312 170.382812 C 184.449219 172.070312 183.554688 174.054688 182.265625 176.335938 C 180.476562 179.710938 180.28125 182.6875 181.570312 185.171875 C 183.554688 189.039062 182.859375 192.117188 179.386719 194.203125 C 179.1875 194.398438 179.1875 194.699219 179.285156 194.894531 C 179.484375 195.09375 179.78125 195.195312 179.980469 195.09375 C 184.449219 192.8125 185.835938 189.636719 184.050781 185.46875 C 182.363281 181.796875 182.660156 179.015625 184.945312 177.132812 C 186.035156 176.238281 186.828125 179.015625 187.425781 179.710938 C 189.210938 182.09375 191.988281 182.6875 190.898438 187.054688 C 190.800781 187.253906 190.898438 187.453125 190.996094 187.550781 C 191.097656 187.652344 191.296875 187.75 191.492188 187.75 C 191.691406 187.75 191.792969 187.550781 191.890625 187.355469 C 192.683594 185.171875 192.585938 183.285156 191.691406 181.894531 C 189.707031 178.519531 186.035156 176.535156 187.921875 172.070312 C 188.316406 171.277344 189.011719 171.078125 190.003906 171.472656 C 192.683594 172.167969 194.867188 172.664062 196.65625 172.863281 C 200.824219 173.261719 203.105469 170.480469 205.785156 172.566406 C 206.875 173.460938 207.671875 174.550781 208.167969 176.039062 C 209.554688 180.109375 207.671875 181.597656 213.128906 184.078125 C 213.328125 184.179688 213.625 184.078125 213.824219 183.78125 C 213.921875 183.582031 213.921875 183.285156 213.722656 183.085938 C 208.066406 180.207031 213.226562 176.4375 208.863281 172.070312 C 208.664062 171.871094 208.664062 171.472656 208.863281 171.175781 C 209.058594 170.878906 209.457031 170.878906 209.753906 171.078125 C 214.519531 173.957031 218.585938 173.957031 222.0625 171.078125 C 222.359375 170.78125 222.359375 170.382812 222.160156 170.085938 C 221.960938 169.789062 221.566406 169.6875 221.265625 169.789062 C 216.402344 172.46875 214.121094 170.480469 210.050781 168.496094 C 207.769531 167.40625 205.386719 167.40625 202.707031 168.695312 C 197.746094 170.582031 193.777344 169.488281 190.699219 165.121094 C 190.003906 164.128906 189.507812 162.941406 189.113281 161.648438 C 187.722656 161.648438 186.332031 161.449219 185.042969 161.253906 Z M 185.140625 161.449219 " fill-opacity="1" fill-rule="evenodd"/></g><g fill="#054d3b" fill-opacity="1"><g transform="translate(81.327935, 242.096307)"><g><path d="M 1.492188 -27.417969 L 5.519531 -27.417969 L 5.519531 0 L 1.492188 0 Z M 1.492188 -27.417969 "/></g></g></g><g fill="#054d3b" fill-opacity="1"><g transform="translate(93.302087, 242.096307)"><g><path d="M 7.945312 -17.570312 L 7.945312 -21.785156 C 7.945312 -22.53125 7.796875 -23.054688 7.421875 -23.503906 C 7.238281 -23.6875 6.9375 -23.800781 6.601562 -23.800781 C 5.894531 -23.800781 5.558594 -23.277344 5.410156 -22.792969 C 5.296875 -22.496094 5.261719 -22.160156 5.261719 -21.785156 L 5.261719 -5.296875 C 5.261719 -4.515625 5.445312 -3.992188 5.820312 -3.582031 C 6.007812 -3.394531 6.265625 -3.28125 6.601562 -3.28125 C 7.3125 -3.28125 7.648438 -3.730469 7.796875 -4.289062 C 7.910156 -4.550781 7.945312 -4.886719 7.945312 -5.296875 L 7.945312 -10.257812 L 6.34375 -10.257812 L 6.34375 -13.652344 L 11.976562 -13.652344 L 11.976562 0 L 9.585938 0 L 9.101562 -1.304688 C 8.355469 -0.375 7.273438 0.296875 5.96875 0.296875 C 4.664062 0.296875 3.769531 -0.0390625 3.097656 -0.632812 C 2.425781 -1.195312 1.976562 -1.902344 1.679688 -2.648438 C 1.34375 -3.507812 1.195312 -4.515625 1.230469 -5.632812 L 1.230469 -21.785156 C 1.269531 -22.867188 1.492188 -23.875 1.902344 -24.734375 C 2.238281 -25.480469 2.722656 -26.226562 3.46875 -26.785156 C 4.214844 -27.34375 5.261719 -27.71875 6.601562 -27.71875 C 7.945312 -27.71875 8.953125 -27.34375 9.699219 -26.785156 C 10.445312 -26.226562 10.96875 -25.480469 11.304688 -24.734375 C 11.714844 -23.875 11.9375 -22.867188 11.976562 -21.785156 L 11.976562 -17.570312 Z M 7.945312 -17.570312 "/></g></g></g><g fill="#054d3b" fill-opacity="1"><g transform="translate(111.69198, 242.096307)"><g><path d="M 5.746094 -14.289062 L 5.410156 -15.554688 L 5.183594 -15.554688 L 5.183594 0 L 1.492188 0 L 1.492188 -27.417969 L 5.074219 -27.417969 L 8.992188 -13.132812 L 9.328125 -11.863281 L 9.550781 -11.863281 L 9.550781 -27.417969 L 13.242188 -27.417969 L 13.242188 0 L 9.660156 0 Z M 5.746094 -14.289062 "/></g></g></g><g fill="#054d3b" fill-opacity="1"><g transform="translate(131.387392, 242.096307)"><g><path d="M 1.492188 -27.417969 L 5.519531 -27.417969 L 5.519531 0 L 1.492188 0 Z M 1.492188 -27.417969 "/></g></g></g><g fill="#054d3b" fill-opacity="1"><g transform="translate(143.361545, 242.096307)"><g><path d="M 0.0742188 -23.277344 L 0.0742188 -27.417969 L 11.714844 -27.417969 L 11.714844 -23.277344 L 7.910156 -23.277344 L 7.910156 0 L 3.878906 0 L 3.878906 -23.277344 Z M 0.0742188 -23.277344 "/></g></g></g><g fill="#054d3b" fill-opacity="1"><g transform="translate(160.110195, 242.096307)"><g><path d="M 1.492188 -27.417969 L 10.707031 -27.417969 L 10.707031 -23.277344 L 5.519531 -23.277344 L 5.519531 -16.078125 L 9.25 -16.078125 L 9.25 -11.675781 L 5.519531 -11.675781 L 5.519531 -4.140625 L 10.707031 -4.140625 L 10.707031 0 L 1.492188 0 Z M 1.492188 -27.417969 "/></g></g></g><g fill="#054d3b" fill-opacity="1"><g transform="translate(176.523145, 242.096307)"><g/></g></g><g fill="#054d3b" fill-opacity="1"><g transform="translate(187.22908, 242.096307)"><g><path d="M 11.078125 -23.277344 L 5.519531 -23.277344 L 5.519531 -16.078125 L 9.25 -16.078125 L 9.25 -11.9375 L 5.519531 -11.9375 L 5.519531 0 L 1.492188 0 L 1.492188 -27.417969 L 11.078125 -27.417969 Z M 11.078125 -23.277344 "/></g></g></g><g fill="#054d3b" fill-opacity="1"><g transform="translate(203.418235, 242.096307)"><g><path d="M 0.375 0 L 4.515625 -27.417969 L 9.4375 -27.417969 L 13.578125 0 L 9.660156 0 L 8.914062 -5.597656 L 5.035156 -5.597656 L 4.289062 0 Z M 7.199219 -18.503906 L 7.089844 -19.210938 L 6.863281 -19.210938 L 6.753906 -18.503906 L 5.597656 -9.847656 L 8.355469 -9.847656 Z M 7.199219 -18.503906 "/></g></g></g><g fill="#054d3b" fill-opacity="1"><g transform="translate(222.330328, 242.096307)"><g><path d="M 8.691406 0 L 6.601562 -11.566406 L 5.519531 -11.566406 L 5.519531 0 L 1.492188 0 L 1.492188 -27.417969 L 5.519531 -27.417969 C 10.332031 -27.417969 12.386719 -24.695312 12.386719 -19.511719 C 12.386719 -16.789062 11.675781 -14.324219 10.148438 -13.28125 L 12.722656 0 Z M 5.519531 -15.296875 C 6.082031 -15.296875 6.828125 -15.371094 7.421875 -15.890625 C 8.019531 -16.414062 8.503906 -17.421875 8.503906 -19.359375 C 8.503906 -21.300781 8.019531 -22.34375 7.421875 -22.867188 C 6.828125 -23.390625 6.082031 -23.425781 5.519531 -23.425781 Z M 5.519531 -15.296875 "/></g></g></g><g fill="#054d3b" fill-opacity="1"><g transform="translate(240.757511, 242.096307)"><g><path d="M 8.167969 0 L 5.597656 -17.234375 L 5.445312 -18.390625 L 5.222656 -18.390625 L 5.222656 0 L 1.492188 0 L 1.492188 -27.417969 L 6.417969 -27.417969 L 8.804688 -14.882812 L 8.992188 -13.429688 L 9.066406 -13.429688 L 9.25 -14.882812 L 11.640625 -27.417969 L 16.5625 -27.417969 L 16.5625 0 L 12.832031 0 L 12.832031 -18.390625 L 12.609375 -18.390625 L 12.460938 -17.234375 L 9.886719 0 Z M 8.167969 0 "/></g></g></g><g fill="#054d3b" fill-opacity="1"><g transform="translate(263.7727, 242.096307)"><g><path d="M 1.492188 -27.417969 L 10.707031 -27.417969 L 10.707031 -23.277344 L 5.519531 -23.277344 L 5.519531 -16.078125 L 9.25 -16.078125 L 9.25 -11.675781 L 5.519531 -11.675781 L 5.519531 -4.140625 L 10.707031 -4.140625 L 10.707031 0 L 1.492188 0 Z M 1.492188 -27.417969 "/></g></g></g><g fill="#054d3b" fill-opacity="1"><g transform="translate(280.185655, 242.096307)"><g><path d="M 8.691406 0 L 6.601562 -11.566406 L 5.519531 -11.566406 L 5.519531 0 L 1.492188 0 L 1.492188 -27.417969 L 5.519531 -27.417969 C 10.332031 -27.417969 12.386719 -24.695312 12.386719 -19.511719 C 12.386719 -16.789062 11.675781 -14.324219 10.148438 -13.28125 L 12.722656 0 Z M 5.519531 -15.296875 C 6.082031 -15.296875 6.828125 -15.371094 7.421875 -15.890625 C 8.019531 -16.414062 8.503906 -17.421875 8.503906 -19.359375 C 8.503906 -21.300781 8.019531 -22.34375 7.421875 -22.867188 C 6.828125 -23.390625 6.082031 -23.425781 5.519531 -23.425781 Z M 5.519531 -15.296875 "/></g></g></g></svg>